# xmcd CD database file
#
# Track frame offsets:
#	150
#	41611
#	64475
#	114474
#
# Disc length: 1970 seconds
#
# Revision: 0
# Processed by: cddbd v1.5.2PL0 Copyright (c) Steve Scherf et al.
# Submitted via: CDex 1.79
#
DISCID=3407b004
DTITLE=Tangerine Dream - Quantum Key EP
DYEAR=2017
DGENRE=New Age
TTITLE0=Genesis of Precious Thoughts
TTITLE1=Electron Bonfire
TTITLE2=Drowning in Universes
TTITLE3=Mirage of Reality
EXTD=YEAR: 2017
EXTT0=
EXTT1=
EXTT2=
EXTT3=
PLAYORDER=
